<svg viewBox="0 0 25 25" fill="none" xmlns="http://www.w3.org/2000/svg">
										<path d="M4.37476 11.9262H3.24976C2.00711 11.9262 0.999756 12.9386 0.999756 14.1876V17.5797C0.999756 18.8286 2.00711 19.8411 3.24976 19.8411H4.37476C5.6174 19.8411 6.62475 18.8286 6.62475 17.5797V14.1876C6.62475 12.9386 5.6174 11.9262 4.37476 11.9262Z" stroke="white" stroke-width="2" stroke-linecap="round" stroke-linejoin="round"></path>
										<path d="M16.7497 11.9264H15.6247C14.3821 11.9264 13.3747 12.9389 13.3747 14.1878V17.5799C13.3747 18.8289 14.3821 19.8413 15.6247 19.8413H16.7497C17.9923 19.8413 18.9997 18.8289 18.9997 17.5799V14.1878C18.9997 12.9389 17.9923 11.9264 16.7497 11.9264Z" stroke="white" stroke-width="2" stroke-linecap="round" stroke-linejoin="round"></path>
										<path d="M1 14.1876V10.7955C1 8.39644 1.94821 6.09564 3.63604 4.39925C5.32387 2.70287 7.61305 1.74985 10 1.74985C12.3869 1.74985 14.6761 2.70287 16.364 4.39925C18.0518 6.09564 19 8.39644 19 10.7955V14.1876" stroke="white" stroke-width="2" stroke-linecap="round" stroke-linejoin="round"></path>
										<path d="M8.19063 23.9014C5.34558 24.0148 1.68793 22.801 1.86299 19.2078L3.79676 19.2078C3.79676 21.729 5.88816 22.4163 8.19063 22.2935C8.25136 21.9719 8.52587 21.729 8.85602 21.729H11.7511C12.1258 21.729 12.3484 22.2388 12.3484 22.6244V23.5522C12.3484 23.9377 12.0447 24.2502 11.67 24.2502H8.77488C8.5245 24.2502 8.30818 24.1093 8.19063 23.9014Z" fill="white"></path>
									</svg>