<svg viewBox="0 0 18 24" fill="none" xmlns="http://www.w3.org/2000/svg">
										<path d="M13.9637 2.95195H10.7919C10.373 1.79337 9.27584 0.954399 7.97918 0.954399C6.68252 0.954399 5.58535 1.79337 5.16643 2.95195H1.99461C0.897441 2.95195 -0.000244141 3.85085 -0.000244141 4.9495L0.0462926 21.0481C0.0462926 22.1467 0.943978 23.0456 2.04115 23.0456H8.13543C7.54533 22.4721 7.32914 22.1792 6.98295 21.4322H1.67845L1.63191 4.58457H3.98947V5.39127C3.98947 6.48992 4.88715 7.38882 5.98432 7.38882H9.97404C11.0712 7.38882 11.9689 6.48992 11.9689 5.39127V4.58457H14.2811V10.4389C14.9893 10.5388 15.3402 10.7486 15.9586 11.0382V4.9495C15.9586 3.85085 15.0609 2.95195 13.9637 2.95195ZM7.97918 5.39127C7.34445 5.39127 6.52838 4.98792 6.52838 3.95073C6.52838 3.37451 6.93641 2.56781 7.97918 2.56781C8.52777 2.56781 9.38465 2.98544 9.38465 3.95073C9.38465 4.91601 8.65794 5.39127 7.97918 5.39127ZM13.0129 13.0579C10.26 13.0579 8.02572 15.2951 8.02572 18.0517C8.02572 20.8084 10.26 23.0456 13.0129 23.0456C15.7658 23.0456 18 20.8084 18 18.0517C18 15.2951 15.7658 13.0579 13.0129 13.0579ZM14.2995 20.0493L12.6538 18.4013C12.5607 18.3085 12.5071 18.1832 12.5042 18.0517V15.5648C12.5042 15.2851 12.7236 15.0654 13.0029 15.0654C13.2822 15.0654 13.5016 15.2851 13.5016 15.5648V17.852L14.9977 19.3501C15.0443 19.3959 15.0814 19.4504 15.1069 19.5106C15.1323 19.5708 15.1456 19.6354 15.1459 19.7007C15.1462 19.7661 15.1336 19.8308 15.1088 19.8913C15.084 19.9517 15.0474 20.0066 15.0013 20.0528C14.9551 20.099 14.9003 20.1356 14.84 20.1605C14.7796 20.1853 14.7149 20.198 14.6497 20.1976C14.5844 20.1973 14.5199 20.184 14.4598 20.1586C14.3997 20.1331 14.3452 20.096 14.2995 20.0493Z" fill="white"></path>
									</svg>