<svg viewBox="0 0 20 20" fill="none" xmlns="http://www.w3.org/2000/svg">
										<path d="M4.22111 3L3.84216 1H1M4.22111 3H19L15.2105 12.0455H5.73689M4.22111 3L5.73689 12.0455M5.73689 12.0455L3.56458 13.293C2.96774 13.923 3.5309 14.9091 4.375 14.9091H9.625H12.25L15.2105 15M15.2105 15C14.708 15 14.2261 15.2107 13.8708 15.5858C13.5154 15.9609 13.3158 16.4696 13.3158 17C13.3158 17.5304 13.5154 18.0391 13.8708 18.4142C14.2261 18.7893 14.708 19 15.2105 19C15.7131 19 16.195 18.7893 16.5503 18.4142C16.9056 18.0391 17.1053 17.5304 17.1053 17C17.1053 16.4696 16.9056 15.9609 16.5503 15.5858C16.195 15.2107 15.7131 15 15.2105 15ZM7.63162 17C7.63162 17.5304 7.432 18.0391 7.07667 18.4142C6.72134 18.7893 6.2394 19 5.73689 19C5.23438 19 4.75245 18.7893 4.39711 18.4142C4.04178 18.0391 3.84216 17.5304 3.84216 17C3.84216 16.4696 4.04178 15.9609 4.39711 15.5858C4.75245 15.2107 5.23438 15 5.73689 15C6.2394 15 6.72134 15.2107 7.07667 15.5858C7.432 15.9609 7.63162 16.4696 7.63162 17Z" stroke="white" stroke-width="2" stroke-linecap="round" stroke-linejoin="round"></path>
									</svg>