<svg width="18" height="24" viewBox="0 0 18 24" fill="none" xmlns="http://www.w3.org/2000/svg">
										<path d="M9.00012 12.211C9.61888 12.211 10.1488 11.9904 10.5898 11.5491C11.03 11.1086 11.2502 10.5788 11.2502 9.95968C11.2502 9.34056 11.03 8.81037 10.5898 8.36911C10.1488 7.9286 9.61888 7.70835 9.00012 7.70835C8.38136 7.70835 7.85186 7.9286 7.4116 8.36911C6.97059 8.81037 6.75009 9.34056 6.75009 9.95968C6.75009 10.5788 6.97059 11.1086 7.4116 11.5491C7.85186 11.9904 8.38136 12.211 9.00012 12.211ZM9.00012 20.4847C11.2877 18.3834 12.9846 16.4743 14.0908 14.7573C15.1971 13.041 15.7502 11.5169 15.7502 10.1848C15.7502 8.13985 15.0985 6.46523 13.7949 5.16096C12.4922 3.85744 10.8939 3.20568 9.00012 3.20568C7.10635 3.20568 5.5077 3.85744 4.20418 5.16096C2.90141 6.46523 2.25003 8.13985 2.25003 10.1848C2.25003 11.5169 2.80316 13.041 3.90943 14.7573C5.01569 16.4743 6.71259 18.3834 9.00012 20.4847ZM9.00012 23.0456C8.85012 23.0456 8.70012 23.0174 8.55012 22.9611C8.40011 22.9048 8.26886 22.8298 8.15636 22.736C5.41882 20.3158 3.37505 18.0694 2.02503 15.9966C0.675009 13.9232 0 11.9859 0 10.1848C0 7.37065 0.904887 5.12869 2.71466 3.45895C4.52369 1.78922 6.61884 0.954346 9.00012 0.954346C11.3814 0.954346 13.4766 1.78922 15.2856 3.45895C17.0954 5.12869 18.0002 7.37065 18.0002 10.1848C18.0002 11.9859 17.3252 13.9232 15.9752 15.9966C14.6252 18.0694 12.5814 20.3158 9.84388 22.736C9.73138 22.8298 9.60013 22.9048 9.45013 22.9611C9.30013 23.0174 9.15012 23.0456 9.00012 23.0456Z" fill="white"></path>
									</svg>